<svg xmlns="http://www.w3.org/2000/svg" id="svg2" viewBox="0 0 517.47038 561.42256" height="598.851" width="551.968"><defs id="defs4"><clipPath id="clipPath3373"><path d="M0 1872h5184V0H0v1872z" id="path3375"/></clipPath><clipPath id="clipPath3788"><path id="rect3790" fill="#00f" fill-rule="evenodd" stroke="#000" stroke-width=".8" d="M143.999 1667.617H660.57v-516.571H143.999z"/></clipPath></defs><g id="layer1"><g id="g3363"><path clip-path="url(#clipPath3788)" d="M0 936.625h5183.999V1872H0V936.625z" id="path3365" fill="#fff" transform="matrix(1.25 0 0 -1.25 -2722.53 1744.52)"/><path d="M0 .376h5183.999v935.999H0V.376z" id="path3367" fill="#fff" transform="matrix(1.25 0 0 -1.25 -2722.53 1744.52)"/><g id="g3369"><g id="g3371" clip-path="url(#clipPath3373)" transform="matrix(1.25 0 0 -1.25 -2722.53 1744.52)"><g id="g3377"><path d="M0 0c-21.974 0-31.896 15.063-31.896 34.909v69.994c0 6.911 5.138 12.405 11.872 12.405 6.556 0 11.872-5.494 11.872-12.405V92.854h22.15c5.848 0 10.986-4.43 10.986-10.632 0-5.848-5.138-10.279-10.986-10.279h-22.15V35.44c0-8.505 3.721-13.113 11.518-13.113 3.899 0 7.797 1.064 10.987 1.949 9.037 2.127 14.708-3.544 14.708-10.099 0-3.899-1.95-7.975-7.444-10.455C15.416.887 6.732 0 0 0" id="path3379" fill="#fff" transform="translate(1377.986 1359.108)"/></g><g id="g3381"><path d="M0 0c0-4.784-3.721-11.164-11.164-11.164-4.075 0-7.974 1.772-13.289 1.595-5.848-.177-9.215-3.367-9.215-11.518v-50.147c0-6.735-5.139-12.05-11.873-12.05-6.557 0-11.872 5.315-11.872 12.05v54.577c0 18.428 10.809 30.302 31.186 30.302 5.848 0 11.696-.533 15.241-1.418C-3.721 10.277 0 5.848 0 0" id="path3383" fill="#fff" transform="translate(1481.115 1442.925)"/></g><g id="g3385"><path d="M0 0c1.24 0 1.949.709 1.949 2.127.531 10.809-6.203 18.074-17.72 18.074-12.582 0-18.784-7.973-18.784-20.201H0zm24.808-4.253c0-6.91-3.544-11.872-12.227-11.872h-47.136v-1.771c0-11.165 8.506-17.189 20.379-17.189 6.379 0 12.936 1.595 18.96 3.898 9.392 3.544 15.593-2.835 15.593-9.391 0-3.367-1.24-7.089-6.023-9.924-6.557-3.898-17.899-6.202-29.239-6.202-24.454 0-40.933 15.417-42.705 37.566-.532 6.911-.355 16.658 0 22.151 2.126 23.036 18.606 37.744 41.819 37.744 24.099 0 40.579-16.125 40.579-41.111v-3.899z" id="path3387" fill="#fff" transform="translate(1548.455 1415.813)"/></g><g id="g3389"><path d="M0 0c1.24 0 1.949.709 1.949 2.127.531 10.809-6.203 18.074-17.72 18.074-12.582 0-18.784-7.973-18.784-20.201H0zm24.808-4.253c0-6.91-3.544-11.872-12.227-11.872h-47.136v-1.771c0-11.165 8.506-17.189 20.379-17.189 6.379 0 12.936 1.595 18.96 3.898 9.392 3.544 15.593-2.835 15.593-9.391 0-3.367-1.24-7.089-6.023-9.924-6.557-3.898-17.899-6.202-29.239-6.202-24.454 0-40.933 15.417-42.705 37.566-.532 6.911-.355 16.658 0 22.151 2.126 23.036 18.606 37.744 41.819 37.744 24.099 0 40.579-16.125 40.579-41.111v-3.899z" id="path3391" fill="#fff" transform="translate(1648.574 1415.813)"/></g><g id="g3393"><path d="M0 0c3.898 3.544 12.936 6.911 22.328 6.911 22.504 0 35.794-13.468 35.794-38.807v-45.541c0-7.087-4.962-12.581-12.05-12.581-6.556 0-11.695 5.494-11.695 12.581v44.3c0 10.81-6.201 16.834-15.947 16.834-7.444 0-14.708-3.366-18.43-7.442v-54.046c0-6.733-4.961-12.227-11.695-12.227-6.557 0-12.049 5.494-12.049 12.227V25.871c0 6.911 5.139 12.228 11.872 12.228C-5.316 38.099 0 32.782 0 25.871V0z" id="path3395" fill="#fff" transform="translate(1717.506 1449.658)"/></g><g id="g3397"><path d="M0 0c-.531 10.1-7.619 17.188-18.783 17.188-11.164 0-18.074-7.088-18.961-17.188-.354-4.785-.354-13.113 0-17.721.887-10.1 7.797-17.188 18.961-17.188C-7.619-34.909-.709-27.821 0-17.721.354-13.113.354-4.785 0 0m-18.783-57.591c-23.213 0-40.756 14.885-42.528 35.972-.532 7.088-.532 18.252 0 25.34 1.772 21.264 19.315 36.149 42.528 36.149 23.39 0 40.579-14.885 42.351-36.149.532-7.088.532-18.075 0-25.162-1.772-21.265-18.961-36.15-42.351-36.15" id="path3399" fill="#fff" transform="translate(1857.674 1416.7)"/></g><g id="g3401"><path d="M0 0c0 7.088 4.252 12.581 11.695 12.581 6.733 0 12.049-5.493 12.049-12.581v-45.186c0-10.632 6.911-16.48 17.012-16.48 7.797 0 13.644 2.304 17.365 4.607V.354c0 6.734 4.962 12.227 11.873 12.227 6.556 0 11.872-5.493 11.872-12.227v-66.272c0-4.076-1.063-6.38-4.253-8.329-5.493-3.899-18.428-10.101-37.388-10.101C14.707-84.348 0-70.525 0-45.54V0z" id="path3403" fill="#fff" transform="translate(1901.975 1443.456)"/></g><g id="g3405"><path d="M0 0c0-19.847-16.48-30.833-37.035-30.833-16.656 0-27.289 4.785-33.846 10.278-4.252 3.544-5.492 10.278-2.126 14.707C-69.463-1.063-63.438 0-57.59-3.721c5.492-3.544 12.758-5.847 21.086-5.847 9.215 0 13.468 3.366 13.468 8.151 0 3.898-2.835 6.556-10.278 8.328-6.379 1.418-6.202 1.24-13.113 3.013-14.53 3.721-25.871 11.872-25.871 27.111 0 19.138 15.417 29.593 36.15 29.593 11.163 0 22.681-2.835 28.882-7.975 5.139-4.252 4.786-11.517 1.064-15.77-3.544-3.899-9.569-4.43-15.417-1.418-4.608 2.304-10.809 3.898-15.416 3.898-8.86 0-12.581-3.366-12.581-7.619 0-3.722 2.657-6.202 10.632-7.974l12.581-2.835C-8.684 22.682 0 13.999 0 0" id="path3407" fill="#fff" transform="translate(2077.404 1389.941)"/></g><g id="g3409"><path d="M0 0c1.241 0 1.949.709 1.949 2.127.532 10.809-6.201 18.074-17.719 18.074-12.582 0-18.784-7.973-18.784-20.201H0zm24.809-4.253c0-6.91-3.544-11.872-12.227-11.872h-47.136v-1.771c0-11.165 8.506-17.189 20.378-17.189 6.379 0 12.936 1.595 18.961 3.898 9.392 3.544 15.594-2.835 15.594-9.391 0-3.367-1.24-7.089-6.025-9.924-6.557-3.898-17.897-6.202-29.239-6.202-24.453 0-40.932 15.417-42.705 37.566-.531 6.911-.353 16.658 0 22.151 2.127 23.036 18.607 37.744 41.82 37.744 24.099 0 40.579-16.125 40.579-41.111v-3.899z" id="path3411" fill="#fff" transform="translate(2150.943 1415.813)"/></g><g id="g3413"><path d="M0 0l1.756-7.682L3.566 0a3.088 3.088 0 0 0 3.018 2.47c1.592 0 2.854-.934 3.183-2.854l1.59-10.096c.221-1.208-.218-2.415-1.425-2.634-1.428-.275-2.36.549-2.525 1.756L6.311-2.854 4.334-10.81c-.384-1.371-1.207-2.304-2.578-2.304-1.262 0-2.141.823-2.579 2.304l-1.976 8.012-1.097-8.56c-.165-1.207-1.098-2.031-2.524-1.756-1.207.219-1.646 1.426-1.427 2.634L-6.256-.438c.33 1.974 1.647 2.908 3.183 2.908C-1.646 2.47-.33 1.536 0 0m-12.4-11.084c0-1.152-.879-2.03-2.032-2.03-1.207 0-2.084.933-2.084 2.03v9.438h-3.074c-1.042 0-1.92.878-1.92 1.92 0 1.153.878 1.976 1.92 1.976h10.152c1.042 0 1.92-.823 1.92-1.976 0-1.042-.878-1.92-1.92-1.92H-12.4v-9.438z" id="path3415" fill="#fff" transform="translate(2203.414 1453.128)"/></g><g id="g3417"><path d="M0 0c-8.356 4.725-21.699-2.873-29.803-16.969l-14.672-25.523c-5.361-10.612-4.626-23.244 2.173-32.998l.429-.615c6.799-9.752 15.915-18.768 18.933-21.984a16.59 16.59 0 0 0 3.875-6.893c2.478-8.861-2.696-18.053-11.556-20.533-8.861-2.478-18.054 2.695-20.532 11.556a16.579 16.579 0 0 0-.482 6.623c.476 3.661-.699 9.624-5.947 15.479-5.25 5.853-15.98-5.204-19.448-16.574l-.16-.523c-3.469-11.37-5.659-21.293-5.005-22.247.39-.569.754-1.166 1.085-1.791 4.868-9.158 1.389-20.529-7.769-25.396-9.158-4.869-20.529-1.39-25.397 7.768-4.869 9.159-1.39 20.528 7.768 25.397.411.218.827.42 1.246.604.7.308 2.684 5.089 4.407 10.734l3.119 10.224c.183.6.343 1.195.489 1.784l9.268 33.092-9.914-20.346c-1.174 3.863-3.116 4-7.37.957-2.566-1.836-6.808-5.45-8.882-6.932-3.889-2.786-7.145-8.193-8.869-11.506a16.412 16.412 0 0 0-4.249-5.201c-7.096-5.758-17.516-4.673-23.275 2.423-5.759 7.097-4.673 17.517 2.423 23.275a16.478 16.478 0 0 0 6.897 3.322c4.17.905 18.35 9.567 26.892 15.68 1.529 1.093 2.813 2.129 3.856 3.089l22.811 17.323-19.865-10.734s-2.022.205-4.499-.071c-7.272-.807-14.759-1.831-16.174-3.632a14.77 14.77 0 0 0-2.987-2.858c-6.63-4.776-15.878-3.273-20.654 3.358s-3.272 15.879 3.359 20.655a14.726 14.726 0 0 0 9.041 2.783c5.317-.147 19.308-2.985 31.014-.909l3.007.532c11.706 2.074 25.723 12.265 31.306 22.761l12.213 21.453c6.745 11.848 6.247 24.826-1.112 28.986l-13.325 7.534c-6.723 3.801-17.729 3.808-24.457.015l-91.777-51.74c-6.73-3.794-12.234-13.217-12.234-20.94v-101.109c0-7.723 5.504-17.146 12.234-20.94l91.777-51.738c6.728-3.795 17.734-3.787 24.457.013l91.464 51.712c6.724 3.8 12.225 13.23 12.225 20.953v101.109c0 7.723-5.501 17.154-12.225 20.954 0 0-6.775 3.829-15.129 8.554" id="path3419" fill="#6fbc6d" transform="translate(1246.962 1498.598)"/></g><g id="g3421"><path d="M0 0c-21.974 0-31.896 15.063-31.896 34.909v69.994c0 6.91 5.138 12.405 11.872 12.405 6.556 0 11.872-5.495 11.872-12.405V92.854h22.15c5.848 0 10.986-4.431 10.986-10.632 0-5.848-5.138-10.279-10.986-10.279h-22.15V35.44c0-8.505 3.721-13.113 11.518-13.113 3.899 0 7.797 1.064 10.987 1.949 9.037 2.127 14.708-3.544 14.708-10.099 0-3.899-1.95-7.975-7.444-10.455C15.416.887 6.732 0 0 0" id="path3423" fill="#fff" transform="translate(1377.986 405.755)"/></g><g id="g3425"><path d="M0 0c0-4.783-3.721-11.163-11.163-11.163-4.075 0-7.974 1.772-13.29 1.595-5.848-.177-9.215-3.367-9.215-11.518v-50.147c0-6.735-5.139-12.05-11.872-12.05-6.557 0-11.872 5.315-11.872 12.05v54.577c0 18.428 10.808 30.301 31.187 30.301 5.847 0 11.695-.532 15.239-1.417C-3.721 10.278 0 5.848 0 0" id="path3427" fill="#fff" transform="translate(1481.115 489.57)"/></g><g id="g3429"><path d="M0 0c1.24 0 1.949.709 1.949 2.127.531 10.809-6.203 18.074-17.72 18.074-12.582 0-18.784-7.973-18.784-20.201H0zm24.808-4.253c0-6.91-3.544-11.872-12.227-11.872h-47.136v-1.771c0-11.165 8.506-17.189 20.379-17.189 6.379 0 12.936 1.595 18.96 3.898 9.392 3.544 15.593-2.835 15.593-9.391 0-3.367-1.24-7.089-6.023-9.924-6.557-3.898-17.899-6.202-29.239-6.202-24.454 0-40.933 15.417-42.705 37.566-.532 6.911-.355 16.658 0 22.151 2.126 23.036 18.606 37.743 41.819 37.743 24.099 0 40.579-16.125 40.579-41.11v-3.899z" id="path3431" fill="#fff" transform="translate(1548.455 462.459)"/></g><g id="g3433"><path d="M0 0c1.24 0 1.949.709 1.949 2.127.531 10.809-6.202 18.074-17.72 18.074-12.581 0-18.784-7.973-18.784-20.201H0zm24.809-4.253c0-6.91-3.545-11.872-12.227-11.872h-47.137v-1.771c0-11.165 8.506-17.189 20.379-17.189 6.379 0 12.936 1.595 18.961 3.898 9.391 3.544 15.593-2.835 15.593-9.391 0-3.367-1.24-7.089-6.024-9.924-6.557-3.898-17.898-6.202-29.239-6.202-24.453 0-40.933 15.417-42.705 37.566-.531 6.911-.354 16.658 0 22.151 2.127 23.036 18.606 37.743 41.819 37.743 24.099 0 40.58-16.125 40.58-41.11v-3.899z" id="path3435" fill="#fff" transform="translate(1648.574 462.459)"/></g><g id="g3437"><path d="M0 0c3.898 3.544 12.936 6.91 22.328 6.91 22.504 0 35.794-13.467 35.794-38.806v-45.541c0-7.087-4.962-12.581-12.05-12.581-6.556 0-11.695 5.494-11.695 12.581v44.3c0 10.81-6.201 16.834-15.947 16.834-7.444 0-14.708-3.366-18.43-7.442v-54.046c0-6.733-4.961-12.227-11.695-12.227-6.557 0-12.049 5.494-12.049 12.227V25.871c0 6.911 5.139 12.227 11.872 12.227C-5.316 38.098 0 32.782 0 25.871V0z" id="path3439" fill="#fff" transform="translate(1717.506 496.305)"/></g><g id="g3441"><path d="M0 0c-.531 10.1-7.619 17.187-18.783 17.187-11.163 0-18.074-7.087-18.96-17.187-.355-4.785-.355-13.113 0-17.721.886-10.1 7.797-17.188 18.96-17.188C-7.619-34.909-.708-27.821 0-17.721.355-13.113.355-4.785 0 0m-18.783-57.591c-23.213 0-40.756 14.885-42.528 35.972-.531 7.088-.531 18.252 0 25.34 1.772 21.263 19.315 36.148 42.528 36.148 23.39 0 40.58-14.885 42.351-36.148.532-7.088.532-18.075 0-25.162-1.771-21.265-18.961-36.15-42.351-36.15" id="path3443" fill="#fff" transform="translate(1857.674 463.346)"/></g><g id="g3445"><path d="M0 0c0 7.088 4.254 12.581 11.695 12.581 6.735 0 12.05-5.493 12.05-12.581v-45.186c0-10.632 6.911-16.48 17.011-16.48 7.797 0 13.644 2.304 17.366 4.607V.354c0 6.734 4.962 12.227 11.872 12.227 6.557 0 11.873-5.493 11.873-12.227v-66.272c0-4.076-1.063-6.38-4.253-8.329-5.493-3.899-18.428-10.101-37.389-10.101C14.708-84.348 0-70.525 0-45.54V0z" id="path3447" fill="#fff" transform="translate(1901.975 490.103)"/></g><g id="g3449"><path d="M0 0c0-19.847-16.479-30.833-37.034-30.833-16.657 0-27.288 4.785-33.845 10.278-4.254 3.544-5.494 10.278-2.127 14.707C-69.462-1.063-63.438 0-57.59-3.721c5.494-3.544 12.759-5.847 21.088-5.847 9.214 0 13.467 3.366 13.467 8.151 0 3.898-2.836 6.556-10.278 8.328-6.378 1.418-6.203 1.24-13.113 3.013-14.53 3.721-25.871 11.872-25.871 27.111 0 19.138 15.416 29.592 36.149 29.592 11.164 0 22.681-2.834 28.883-7.974 5.14-4.253 4.785-11.517 1.064-15.77-3.544-3.899-9.569-4.43-15.416-1.418-4.608 2.304-10.81 3.898-15.417 3.898-8.861 0-12.581-3.366-12.581-7.619 0-3.722 2.658-6.202 10.632-7.974l12.581-2.835C-8.682 22.682 0 13.999 0 0" id="path3451" fill="#fff" transform="translate(2077.404 436.588)"/></g><g id="g3453"><path d="M0 0c1.24 0 1.949.709 1.949 2.127.531 10.809-6.203 18.074-17.72 18.074-12.582 0-18.784-7.973-18.784-20.201H0zm24.808-4.253c0-6.91-3.544-11.872-12.227-11.872h-47.136v-1.771c0-11.165 8.506-17.189 20.379-17.189 6.379 0 12.936 1.595 18.96 3.898 9.392 3.544 15.593-2.835 15.593-9.391 0-3.367-1.24-7.089-6.023-9.924-6.557-3.898-17.899-6.202-29.239-6.202-24.454 0-40.933 15.417-42.705 37.566-.532 6.911-.355 16.658 0 22.151 2.126 23.036 18.606 37.743 41.819 37.743 24.099 0 40.579-16.125 40.579-41.11v-3.899z" id="path3455" fill="#fff" transform="translate(2150.945 462.459)"/></g><g id="g3457"><path d="M0 0l1.756-7.682L3.566 0a3.088 3.088 0 0 0 3.018 2.47c1.592 0 2.854-.934 3.183-2.854l1.59-10.096c.221-1.208-.218-2.415-1.425-2.634-1.428-.275-2.36.549-2.525 1.756L6.311-2.854 4.334-10.81c-.384-1.371-1.207-2.304-2.578-2.304-1.262 0-2.141.823-2.579 2.304l-1.976 8.012-1.097-8.56c-.165-1.207-1.098-2.031-2.524-1.756-1.207.219-1.646 1.426-1.427 2.634L-6.256-.438c.33 1.974 1.647 2.908 3.183 2.908C-1.646 2.47-.33 1.536 0 0m-12.4-11.084c0-1.152-.879-2.03-2.032-2.03-1.207 0-2.084.933-2.084 2.03v9.438h-3.074c-1.042 0-1.92.877-1.92 1.92 0 1.153.878 1.975 1.92 1.975h10.152c1.042 0 1.92-.822 1.92-1.975 0-1.043-.878-1.92-1.92-1.92H-12.4v-9.438z" id="path3459" fill="#fff" transform="translate(2203.414 499.774)"/></g><g id="g3461"><path d="M0 0c-8.356 4.725-21.699-2.873-29.803-16.969l-14.672-25.523c-5.361-10.612-4.626-23.244 2.173-32.998l.429-.615c6.799-9.752 15.915-18.768 18.933-21.984a16.59 16.59 0 0 0 3.875-6.893c2.478-8.861-2.696-18.053-11.556-20.533-8.861-2.478-18.054 2.695-20.532 11.556a16.579 16.579 0 0 0-.482 6.623c.476 3.661-.699 9.624-5.947 15.479-5.25 5.853-15.98-5.204-19.448-16.574l-.16-.523c-3.469-11.37-5.659-21.293-5.005-22.247.39-.569.754-1.166 1.085-1.791 4.868-9.158 1.389-20.529-7.769-25.396-9.158-4.869-20.529-1.39-25.397 7.768-4.869 9.159-1.39 20.528 7.768 25.397.411.218.827.42 1.246.604.7.308 2.684 5.089 4.407 10.734l3.119 10.224c.183.6.343 1.195.489 1.784l9.268 33.092-9.914-20.346c-1.174 3.863-3.116 4-7.37.957-2.566-1.836-6.808-5.45-8.882-6.932-3.889-2.786-7.145-8.193-8.869-11.506a16.412 16.412 0 0 0-4.249-5.201c-7.096-5.758-17.516-4.673-23.275 2.423-5.759 7.097-4.673 17.517 2.423 23.275a16.478 16.478 0 0 0 6.897 3.322c4.17.905 18.35 9.567 26.892 15.68 1.529 1.093 2.813 2.129 3.856 3.088l22.811 17.324-19.865-10.735s-2.022.206-4.499-.07c-7.272-.807-14.759-1.832-16.174-3.633a14.793 14.793 0 0 0-2.987-2.857c-6.63-4.776-15.878-3.274-20.654 3.357-4.776 6.632-3.272 15.88 3.359 20.655a14.72 14.72 0 0 0 9.041 2.784c5.317-.148 19.308-2.985 31.014-.909l3.007.531c11.706 2.075 25.723 12.266 31.306 22.762l12.213 21.453c6.745 11.847 6.247 24.826-1.112 28.986l-13.325 7.533c-6.723 3.802-17.729 3.809-24.457.016l-91.777-51.74c-6.73-3.794-12.234-13.217-12.234-20.94v-101.109c0-7.723 5.504-17.146 12.234-20.94l91.777-51.738c6.728-3.795 17.734-3.787 24.457.013l91.464 51.712c6.724 3.8 12.225 13.23 12.225 20.953v101.109c0 7.723-5.501 17.154-12.225 20.953L0 0" id="path3463" fill="#6fbc6d" transform="translate(1246.962 545.244)"/></g><g id="g3465"><path d="M0 0c-21.973 0-31.896 15.063-31.896 34.909v69.994c0 6.911 5.139 12.405 11.873 12.405 6.556 0 11.873-5.494 11.873-12.405V92.854h22.149c5.848 0 10.987-4.43 10.987-10.632 0-5.848-5.139-10.279-10.987-10.279H-8.15V35.44c0-8.505 3.72-13.113 11.517-13.113 3.899 0 7.797 1.064 10.987 1.949 9.037 2.127 14.707-3.544 14.707-10.099 0-3.899-1.95-7.975-7.442-10.455C15.417.887 6.734 0 0 0" id="path3467" fill="#fff" transform="translate(2935.67 1359.108)"/></g><g id="g3469"><path d="M0 0c0-4.784-3.722-11.164-11.164-11.164-4.076 0-7.975 1.772-13.29 1.595-5.848-.177-9.215-3.367-9.215-11.518v-50.147c0-6.735-5.139-12.05-11.872-12.05-6.557 0-11.873 5.315-11.873 12.05v54.577c0 18.428 10.81 30.302 31.187 30.302 5.848 0 11.696-.533 15.24-1.418C-3.722 10.277 0 5.848 0 0" id="path3471" fill="#fff" transform="translate(3038.8 1442.925)"/></g><g id="g3473"><path d="M0 0c1.24 0 1.949.709 1.949 2.127.531 10.809-6.203 18.074-17.72 18.074-12.582 0-18.784-7.973-18.784-20.201H0zm24.808-4.253c0-6.91-3.544-11.872-12.227-11.872h-47.136v-1.771c0-11.165 8.506-17.189 20.379-17.189 6.379 0 12.936 1.595 18.96 3.898 9.392 3.544 15.593-2.835 15.593-9.391 0-3.367-1.24-7.089-6.023-9.924-6.557-3.898-17.899-6.202-29.239-6.202-24.454 0-40.933 15.417-42.706 37.566-.531 6.911-.353 16.658 0 22.151 2.127 23.036 18.607 37.744 41.82 37.744 24.099 0 40.579-16.125 40.579-41.111v-3.899z" id="path3475" fill="#fff" transform="translate(3106.14 1415.813)"/></g><g id="g3477"><path d="M0 0c1.24 0 1.949.709 1.949 2.127.531 10.809-6.202 18.074-17.72 18.074-12.581 0-18.784-7.973-18.784-20.201H0zm24.809-4.253c0-6.91-3.545-11.872-12.227-11.872h-47.137v-1.771c0-11.165 8.506-17.189 20.379-17.189 6.379 0 12.936 1.595 18.961 3.898 9.391 3.544 15.593-2.835 15.593-9.391 0-3.367-1.24-7.089-6.024-9.924-6.557-3.898-17.898-6.202-29.239-6.202-24.453 0-40.933 15.417-42.705 37.566-.531 6.911-.354 16.658 0 22.151 2.127 23.036 18.606 37.744 41.819 37.744 24.099 0 40.58-16.125 40.58-41.111v-3.899z" id="path3479" fill="#fff" transform="translate(3206.259 1415.813)"/></g><g id="g3481"><path d="M0 0c3.898 3.544 12.936 6.911 22.328 6.911 22.504 0 35.794-13.468 35.794-38.807v-45.541c0-7.087-4.962-12.581-12.05-12.581-6.556 0-11.695 5.494-11.695 12.581v44.3c0 10.81-6.201 16.834-15.947 16.834-7.444 0-14.708-3.366-18.43-7.442v-54.046c0-6.733-4.961-12.227-11.695-12.227-6.557 0-12.049 5.494-12.049 12.227V25.871c0 6.911 5.139 12.228 11.872 12.228C-5.316 38.099 0 32.782 0 25.871V0z" id="path3483" fill="#fff" transform="translate(3275.19 1449.658)"/></g><g id="g3485"><path d="M0 0c-.531 10.1-7.619 17.188-18.783 17.188-11.163 0-18.074-7.088-18.96-17.188-.355-4.785-.355-13.113 0-17.721.886-10.1 7.797-17.188 18.96-17.188C-7.619-34.909-.708-27.821 0-17.721.355-13.113.355-4.785 0 0m-18.783-57.591c-23.213 0-40.756 14.885-42.528 35.972-.531 7.088-.531 18.252 0 25.34 1.772 21.264 19.315 36.149 42.528 36.149 23.39 0 40.58-14.885 42.351-36.149.532-7.088.532-18.075 0-25.162-1.771-21.265-18.961-36.15-42.351-36.15" id="path3487" fill="#fff" transform="translate(3415.358 1416.7)"/></g><g id="g3489"><path d="M0 0c0 7.088 4.254 12.581 11.695 12.581 6.735 0 12.05-5.493 12.05-12.581v-45.186c0-10.632 6.911-16.48 17.011-16.48 7.797 0 13.644 2.304 17.366 4.607V.354c0 6.734 4.962 12.227 11.872 12.227 6.557 0 11.873-5.493 11.873-12.227v-66.272c0-4.076-1.063-6.38-4.253-8.329-5.493-3.899-18.428-10.101-37.389-10.101C14.708-84.348 0-70.525 0-45.54V0z" id="path3491" fill="#fff" transform="translate(3459.66 1443.456)"/></g><g id="g3493"><path d="M0 0c0-19.847-16.479-30.833-37.034-30.833-16.657 0-27.288 4.785-33.845 10.278-4.254 3.544-5.494 10.278-2.127 14.707C-69.462-1.063-63.438 0-57.59-3.721c5.494-3.544 12.759-5.847 21.088-5.847 9.214 0 13.467 3.366 13.467 8.151 0 3.898-2.836 6.556-10.278 8.328-6.378 1.418-6.203 1.24-13.113 3.013-14.53 3.721-25.871 11.872-25.871 27.111 0 19.138 15.416 29.593 36.149 29.593 11.164 0 22.681-2.835 28.883-7.975 5.14-4.252 4.785-11.517 1.064-15.77-3.544-3.899-9.569-4.43-15.416-1.418-4.608 2.304-10.81 3.898-15.417 3.898-8.861 0-12.581-3.366-12.581-7.619 0-3.722 2.658-6.202 10.632-7.974l12.581-2.835C-8.682 22.682 0 13.999 0 0" id="path3495" fill="#fff" transform="translate(3635.089 1389.941)"/></g><g id="g3497"><path d="M0 0c1.24 0 1.949.709 1.949 2.127.531 10.809-6.203 18.074-17.72 18.074-12.582 0-18.784-7.973-18.784-20.201H0zm24.808-4.253c0-6.91-3.544-11.872-12.227-11.872h-47.136v-1.771c0-11.165 8.506-17.189 20.379-17.189 6.379 0 12.936 1.595 18.96 3.898 9.392 3.544 15.593-2.835 15.593-9.391 0-3.367-1.24-7.089-6.023-9.924-6.557-3.898-17.899-6.202-29.239-6.202-24.454 0-40.933 15.417-42.705 37.566-.532 6.911-.355 16.658 0 22.151 2.126 23.036 18.606 37.744 41.819 37.744 24.099 0 40.579-16.125 40.579-41.111v-3.899z" id="path3499" fill="#fff" transform="translate(3708.63 1415.813)"/></g><g id="g3501"><path d="M0 0l1.756-7.682L3.566 0a3.088 3.088 0 0 0 3.018 2.47c1.592 0 2.854-.934 3.183-2.854l1.59-10.096c.221-1.208-.218-2.415-1.425-2.634-1.428-.275-2.36.549-2.525 1.756L6.311-2.854 4.334-10.81c-.384-1.371-1.207-2.304-2.578-2.304-1.262 0-2.141.823-2.579 2.304l-1.976 8.012-1.097-8.56c-.165-1.207-1.098-2.031-2.524-1.756-1.207.219-1.646 1.426-1.427 2.634L-6.256-.438c.33 1.974 1.647 2.908 3.183 2.908C-1.646 2.47-.33 1.536 0 0m-12.4-11.084c0-1.152-.879-2.03-2.032-2.03-1.207 0-2.084.933-2.084 2.03v9.438h-3.074c-1.042 0-1.92.878-1.92 1.92 0 1.153.878 1.976 1.92 1.976h10.152c1.042 0 1.92-.823 1.92-1.976 0-1.042-.878-1.92-1.92-1.92H-12.4v-9.438z" id="path3503" fill="#fff" transform="translate(3761.099 1453.128)"/></g><g id="g3505"><path d="M0 0c-8.356 4.725-21.699-2.873-29.803-16.969l-14.672-25.523c-5.361-10.612-4.626-23.244 2.173-32.998l.429-.615c6.799-9.752 15.915-18.768 18.932-21.984a16.58 16.58 0 0 0 3.876-6.893c2.478-8.861-2.696-18.053-11.556-20.533-8.861-2.478-18.054 2.695-20.533 11.556a16.596 16.596 0 0 0-.481 6.623c.476 3.661-.699 9.624-5.947 15.479-5.25 5.853-15.98-5.204-19.448-16.574l-.16-.523c-3.47-11.37-5.659-21.293-5.005-22.247.39-.569.754-1.166 1.085-1.791 4.868-9.158 1.389-20.529-7.769-25.396-9.158-4.869-20.529-1.39-25.398 7.768-4.868 9.159-1.389 20.528 7.769 25.397.411.218.826.42 1.246.604.7.308 2.684 5.089 4.407 10.734l3.119 10.224c.183.6.343 1.195.489 1.784l9.268 33.092-9.914-20.346c-1.175 3.863-3.117 4-7.37.957-2.566-1.836-6.808-5.45-8.882-6.932-3.89-2.786-7.145-8.193-8.869-11.506a16.415 16.415 0 0 0-4.25-5.201c-7.095-5.758-17.515-4.673-23.274 2.423-5.759 7.097-4.673 17.517 2.423 23.275a16.472 16.472 0 0 0 6.897 3.322c4.169.905 18.349 9.567 26.892 15.68 1.529 1.093 2.812 2.129 3.856 3.089l22.81 17.323-19.865-10.734s-2.022.205-4.498-.071c-7.272-.807-14.76-1.831-16.174-3.632a14.77 14.77 0 0 0-2.987-2.858c-6.63-4.776-15.878-3.273-20.654 3.358s-3.272 15.879 3.359 20.655a14.726 14.726 0 0 0 9.041 2.783c5.317-.147 19.308-2.985 31.014-.909l3.007.532c11.706 2.074 25.722 12.265 31.306 22.761l12.213 21.453c6.745 11.848 6.246 24.826-1.112 28.986l-13.325 7.534c-6.723 3.801-17.729 3.808-24.457.015l-91.778-51.74c-6.729-3.794-12.233-13.217-12.233-20.94v-101.109c0-7.723 5.504-17.146 12.233-20.94l91.778-51.738c6.728-3.795 17.734-3.787 24.457.013l91.464 51.712c6.723 3.8 12.225 13.23 12.225 20.953v101.109c0 7.723-5.502 17.154-12.225 20.954 0 0-6.775 3.829-15.129 8.554" id="path3507" fill="#fff" transform="translate(2804.646 1498.598)"/></g><g id="g3509"><path d="M0 0c-21.973 0-31.896 15.063-31.896 34.909v69.994c0 6.91 5.139 12.405 11.873 12.405 6.556 0 11.873-5.495 11.873-12.405V92.854h22.149c5.848 0 10.987-4.431 10.987-10.632 0-5.848-5.139-10.279-10.987-10.279H-8.15V35.44c0-8.505 3.72-13.113 11.517-13.113 3.899 0 7.797 1.064 10.987 1.949 9.037 2.127 14.707-3.544 14.707-10.099 0-3.899-1.95-7.975-7.442-10.455C15.417.887 6.734 0 0 0" id="path3511" fill="#fff" transform="translate(2935.67 405.755)"/></g><g id="g3513"><path d="M0 0c0-4.783-3.722-11.163-11.164-11.163-4.076 0-7.975 1.772-13.29 1.595-5.848-.177-9.215-3.367-9.215-11.518v-50.147c0-6.735-5.139-12.05-11.872-12.05-6.557 0-11.873 5.315-11.873 12.05v54.577c0 18.428 10.81 30.301 31.187 30.301 5.848 0 11.696-.532 15.24-1.417C-3.722 10.278 0 5.848 0 0" id="path3515" fill="#fff" transform="translate(3038.8 489.57)"/></g><g id="g3517"><path d="M0 0c1.24 0 1.949.709 1.949 2.127.531 10.809-6.203 18.074-17.72 18.074-12.582 0-18.784-7.973-18.784-20.201H0zm24.808-4.253c0-6.91-3.544-11.872-12.227-11.872h-47.136v-1.771c0-11.165 8.506-17.189 20.379-17.189 6.379 0 12.936 1.595 18.96 3.898 9.392 3.544 15.593-2.835 15.593-9.391 0-3.367-1.24-7.089-6.023-9.924-6.557-3.898-17.899-6.202-29.239-6.202-24.454 0-40.933 15.417-42.706 37.566-.531 6.911-.353 16.658 0 22.151 2.127 23.036 18.607 37.743 41.82 37.743 24.099 0 40.579-16.125 40.579-41.11v-3.899z" id="path3519" fill="#fff" transform="translate(3106.14 462.459)"/></g><g id="g3521"><path d="M0 0c1.24 0 1.949.709 1.949 2.127.531 10.809-6.202 18.074-17.72 18.074-12.581 0-18.784-7.973-18.784-20.201H0zm24.809-4.253c0-6.91-3.545-11.872-12.227-11.872h-47.137v-1.771c0-11.165 8.506-17.189 20.379-17.189 6.379 0 12.936 1.595 18.961 3.898 9.391 3.544 15.593-2.835 15.593-9.391 0-3.367-1.24-7.089-6.024-9.924-6.557-3.898-17.898-6.202-29.239-6.202-24.453 0-40.933 15.417-42.705 37.566-.531 6.911-.354 16.658 0 22.151 2.127 23.036 18.606 37.743 41.819 37.743 24.099 0 40.58-16.125 40.58-41.11v-3.899z" id="path3523" fill="#fff" transform="translate(3206.259 462.459)"/></g><g id="g3525"><path d="M0 0c3.898 3.544 12.936 6.91 22.328 6.91 22.504 0 35.794-13.467 35.794-38.806v-45.541c0-7.087-4.962-12.581-12.05-12.581-6.556 0-11.695 5.494-11.695 12.581v44.3c0 10.81-6.201 16.834-15.947 16.834-7.444 0-14.708-3.366-18.43-7.442v-54.046c0-6.733-4.961-12.227-11.695-12.227-6.557 0-12.049 5.494-12.049 12.227V25.871c0 6.911 5.139 12.227 11.872 12.227C-5.316 38.098 0 32.782 0 25.871V0z" id="path3527" fill="#fff" transform="translate(3275.19 496.305)"/></g><g id="g3529"><path d="M0 0c-.531 10.1-7.619 17.187-18.783 17.187-11.163 0-18.074-7.087-18.96-17.187-.355-4.785-.355-13.113 0-17.721.886-10.1 7.797-17.188 18.96-17.188C-7.619-34.909-.708-27.821 0-17.721.355-13.113.355-4.785 0 0m-18.783-57.591c-23.213 0-40.756 14.885-42.528 35.972-.531 7.088-.531 18.252 0 25.34 1.772 21.263 19.315 36.148 42.528 36.148 23.39 0 40.58-14.885 42.351-36.148.532-7.088.532-18.075 0-25.162-1.771-21.265-18.961-36.15-42.351-36.15" id="path3531" fill="#fff" transform="translate(3415.358 463.346)"/></g><g id="g3533"><path d="M0 0c0 7.088 4.254 12.581 11.695 12.581 6.735 0 12.05-5.493 12.05-12.581v-45.186c0-10.632 6.911-16.48 17.011-16.48 7.797 0 13.644 2.304 17.366 4.607V.354c0 6.734 4.962 12.227 11.872 12.227 6.557 0 11.873-5.493 11.873-12.227v-66.272c0-4.076-1.063-6.38-4.253-8.329-5.493-3.899-18.428-10.101-37.389-10.101C14.708-84.348 0-70.525 0-45.54V0z" id="path3535" fill="#fff" transform="translate(3459.66 490.103)"/></g><g id="g3537"><path d="M0 0c0-19.847-16.479-30.833-37.034-30.833-16.657 0-27.288 4.785-33.845 10.278-4.254 3.544-5.494 10.278-2.127 14.707C-69.462-1.063-63.438 0-57.59-3.721c5.494-3.544 12.759-5.847 21.088-5.847 9.214 0 13.467 3.366 13.467 8.151 0 3.898-2.836 6.556-10.278 8.328-6.378 1.418-6.203 1.24-13.113 3.013-14.53 3.721-25.871 11.872-25.871 27.111 0 19.138 15.416 29.592 36.149 29.592 11.164 0 22.681-2.834 28.883-7.974 5.14-4.253 4.785-11.517 1.064-15.77-3.544-3.899-9.569-4.43-15.416-1.418-4.608 2.304-10.81 3.898-15.417 3.898-8.861 0-12.581-3.366-12.581-7.619 0-3.722 2.658-6.202 10.632-7.974l12.581-2.835C-8.682 22.682 0 13.999 0 0" id="path3539" fill="#fff" transform="translate(3635.089 436.588)"/></g><g id="g3541"><path d="M0 0c1.24 0 1.949.709 1.949 2.127.531 10.809-6.203 18.074-17.72 18.074-12.582 0-18.784-7.973-18.784-20.201H0zm24.808-4.253c0-6.91-3.544-11.872-12.227-11.872h-47.136v-1.771c0-11.165 8.506-17.189 20.379-17.189 6.379 0 12.936 1.595 18.96 3.898 9.392 3.544 15.593-2.835 15.593-9.391 0-3.367-1.24-7.089-6.023-9.924-6.557-3.898-17.899-6.202-29.239-6.202-24.454 0-40.933 15.417-42.705 37.566-.532 6.911-.355 16.658 0 22.151 2.126 23.036 18.606 37.743 41.819 37.743 24.099 0 40.579-16.125 40.579-41.11v-3.899z" id="path3543" fill="#fff" transform="translate(3708.63 462.459)"/></g><g id="g3545"><path d="M0 0l1.756-7.682L3.566 0a3.088 3.088 0 0 0 3.018 2.47c1.592 0 2.854-.934 3.183-2.854l1.59-10.096c.221-1.208-.218-2.415-1.425-2.634-1.428-.275-2.36.549-2.525 1.756L6.311-2.854 4.334-10.81c-.384-1.371-1.207-2.304-2.578-2.304-1.262 0-2.141.823-2.579 2.304l-1.976 8.012-1.097-8.56c-.165-1.207-1.098-2.031-2.524-1.756-1.207.219-1.646 1.426-1.427 2.634L-6.256-.438c.33 1.974 1.647 2.908 3.183 2.908C-1.646 2.47-.33 1.536 0 0m-12.4-11.084c0-1.152-.879-2.03-2.032-2.03-1.207 0-2.084.933-2.084 2.03v9.438h-3.074c-1.042 0-1.92.877-1.92 1.92 0 1.153.878 1.975 1.92 1.975h10.152c1.042 0 1.92-.822 1.92-1.975 0-1.043-.878-1.92-1.92-1.92H-12.4v-9.438z" id="path3547" fill="#fff" transform="translate(3761.099 499.774)"/></g><g id="g3549"><path d="M0 0c-8.356 4.725-21.699-2.873-29.803-16.969l-14.672-25.523c-5.361-10.612-4.626-23.244 2.173-32.998l.429-.615c6.799-9.752 15.915-18.768 18.932-21.984a16.58 16.58 0 0 0 3.876-6.893c2.478-8.861-2.696-18.053-11.556-20.533-8.861-2.478-18.054 2.695-20.533 11.556a16.596 16.596 0 0 0-.481 6.623c.476 3.661-.699 9.624-5.947 15.479-5.25 5.853-15.98-5.204-19.448-16.574l-.16-.523c-3.47-11.37-5.659-21.293-5.005-22.247.39-.569.754-1.166 1.085-1.791 4.868-9.158 1.389-20.529-7.769-25.396-9.158-4.869-20.529-1.39-25.398 7.768-4.868 9.159-1.389 20.528 7.769 25.397.411.218.826.42 1.246.604.7.308 2.684 5.089 4.407 10.734l3.119 10.224c.183.6.343 1.195.489 1.784l9.268 33.092-9.914-20.346c-1.175 3.863-3.117 4-7.37.957-2.566-1.836-6.808-5.45-8.882-6.932-3.89-2.786-7.145-8.193-8.869-11.506a16.415 16.415 0 0 0-4.25-5.201c-7.095-5.758-17.515-4.673-23.274 2.423-5.759 7.097-4.673 17.517 2.423 23.275a16.472 16.472 0 0 0 6.897 3.322c4.169.905 18.349 9.567 26.892 15.68 1.529 1.093 2.812 2.129 3.856 3.088l22.81 17.324-19.865-10.735s-2.022.206-4.498-.07c-7.272-.807-14.76-1.832-16.174-3.633a14.793 14.793 0 0 0-2.987-2.857c-6.63-4.776-15.878-3.274-20.654 3.357-4.776 6.632-3.272 15.88 3.359 20.655a14.72 14.72 0 0 0 9.041 2.784c5.317-.148 19.308-2.985 31.014-.909l3.007.531c11.706 2.075 25.722 12.266 31.306 22.762l12.213 21.453c6.745 11.847 6.246 24.826-1.112 28.986l-13.325 7.533c-6.723 3.802-17.729 3.809-24.457.016l-91.778-51.74c-6.729-3.794-12.233-13.217-12.233-20.94v-101.109c0-7.723 5.504-17.146 12.233-20.94l91.778-51.738c6.728-3.795 17.734-3.787 24.457.013l91.464 51.712c6.723 3.8 12.225 13.23 12.225 20.953v101.109c0 7.723-5.502 17.154-12.225 20.953L0 0" id="path3551" fill="#fff" transform="translate(2804.646 545.244)"/></g><g id="g3557"><path d="M0 0c-14.695 8.308-38.162-5.054-52.415-29.845L-78.22-74.734c-9.428-18.662-8.135-40.881 3.823-58.036l.752-1.081c11.958-17.152 27.993-33.007 33.298-38.664a29.175 29.175 0 0 0 6.818-12.124c4.357-15.584-4.741-31.751-20.325-36.112-15.584-4.359-31.752 4.738-36.112 20.324a29.162 29.162 0 0 0-.847 11.649c.838 6.439-1.228 16.926-10.46 27.222-9.233 10.296-28.102-9.15-34.204-29.149l-.282-.918c-6.101-19.998-9.952-37.45-8.801-39.13a32.856 32.856 0 0 0 1.908-3.147c8.56-16.108 2.443-36.106-13.664-44.667-16.109-8.562-36.106-2.445-44.668 13.662-8.561 16.108-2.444 36.105 13.664 44.667.722.384 1.454.739 2.191 1.064 1.231.541 4.72 8.948 7.748 18.878l5.486 17.981a57.62 57.62 0 0 1 .862 3.137l16.3 58.201-17.435-35.784c-2.066 6.794-5.482 7.036-12.964 1.684-4.513-3.23-11.973-9.586-15.618-12.194-6.844-4.897-12.569-14.408-15.6-20.235a28.944 28.944 0 0 0-7.473-9.146c-12.483-10.128-30.81-8.219-40.937 4.262-10.127 12.481-8.218 30.808 4.262 40.935a28.989 28.989 0 0 0 12.131 5.841c7.333 1.593 32.271 16.827 47.296 27.577 2.69 1.925 4.947 3.745 6.783 5.433l40.118 30.468-34.939-18.88s-3.555.361-7.913-.123c-12.789-1.42-25.957-3.221-28.446-6.388a25.913 25.913 0 0 0-5.253-5.028c-11.66-8.4-27.924-5.756-36.324 5.907-8.402 11.663-5.755 27.927 5.905 36.326a25.896 25.896 0 0 0 15.902 4.896c9.352-.259 33.961-5.249 54.548-1.601l5.288.937c20.589 3.649 45.238 21.57 55.059 40.03l21.479 37.732C-97 32.51-97.877 55.336-110.818 62.652l-23.437 13.25c-11.823 6.685-31.18 6.697-43.013.026l-161.416-90.999c-11.832-6.671-21.513-23.243-21.513-36.826v-177.827c0-13.584 9.681-30.156 21.513-36.828l161.416-90.997c11.833-6.673 31.19-6.659 43.013.026l160.863 90.947c11.828 6.684 21.502 23.268 21.502 36.852v177.827c0 13.583-9.674 30.168-21.502 36.852C26.608-15.045 14.694-8.31 0 0" id="path3559" fill="#fff" transform="translate(559.197 608.076)"/></g><g id="g3561"><path d="M0 0c-21.973 0-31.896 15.063-31.896 34.909v69.994c0 6.911 5.139 12.405 11.873 12.405 6.556 0 11.873-5.494 11.873-12.405V92.854h22.149c5.848 0 10.987-4.43 10.987-10.632 0-5.848-5.139-10.279-10.987-10.279H-8.15V35.44c0-8.505 3.72-13.113 11.517-13.113 3.899 0 7.797 1.064 10.987 1.949 9.037 2.127 14.707-3.544 14.707-10.099 0-3.899-1.95-7.975-7.442-10.455C15.417.887 6.734 0 0 0" id="path3563" fill="#fff" transform="translate(4147.16 1359.108)"/></g><g id="g3565"><path d="M0 0c0-4.784-3.722-11.164-11.164-11.164-4.076 0-7.975 1.772-13.29 1.595-5.848-.177-9.215-3.367-9.215-11.518v-50.147c0-6.735-5.139-12.05-11.872-12.05-6.557 0-11.873 5.315-11.873 12.05v54.577c0 18.428 10.81 30.302 31.187 30.302 5.848 0 11.696-.533 15.24-1.418C-3.722 10.277 0 5.848 0 0" id="path3567" fill="#fff" transform="translate(4250.29 1442.925)"/></g><g id="g3569"><path d="M0 0c1.24 0 1.949.709 1.949 2.127.531 10.809-6.203 18.074-17.72 18.074-12.582 0-18.784-7.973-18.784-20.201H0zm24.808-4.253c0-6.91-3.544-11.872-12.227-11.872h-47.136v-1.771c0-11.165 8.506-17.189 20.379-17.189 6.379 0 12.936 1.595 18.96 3.898 9.392 3.544 15.593-2.835 15.593-9.391 0-3.367-1.24-7.089-6.023-9.924-6.557-3.898-17.899-6.202-29.239-6.202-24.454 0-40.933 15.417-42.706 37.566-.531 6.911-.353 16.658 0 22.151 2.127 23.036 18.607 37.744 41.82 37.744 24.099 0 40.579-16.125 40.579-41.111v-3.899z" id="path3571" fill="#fff" transform="translate(4317.629 1415.813)"/></g><g id="g3573"><path d="M0 0c1.24 0 1.949.709 1.949 2.127.531 10.809-6.202 18.074-17.72 18.074-12.581 0-18.784-7.973-18.784-20.201H0zm24.809-4.253c0-6.91-3.545-11.872-12.227-11.872h-47.137v-1.771c0-11.165 8.506-17.189 20.379-17.189 6.379 0 12.936 1.595 18.961 3.898 9.391 3.544 15.593-2.835 15.593-9.391 0-3.367-1.24-7.089-6.024-9.924-6.557-3.898-17.898-6.202-29.239-6.202-24.453 0-40.933 15.417-42.705 37.566-.531 6.911-.354 16.658 0 22.151 2.127 23.036 18.606 37.744 41.819 37.744 24.099 0 40.58-16.125 40.58-41.111v-3.899z" id="path3575" fill="#fff" transform="translate(4417.748 1415.813)"/></g><g id="g3577"><path d="M0 0c3.898 3.544 12.936 6.911 22.328 6.911 22.504 0 35.794-13.468 35.794-38.807v-45.541c0-7.087-4.962-12.581-12.05-12.581-6.556 0-11.695 5.494-11.695 12.581v44.3c0 10.81-6.201 16.834-15.947 16.834-7.444 0-14.708-3.366-18.43-7.442v-54.046c0-6.733-4.961-12.227-11.695-12.227-6.557 0-12.049 5.494-12.049 12.227V25.871c0 6.911 5.139 12.228 11.872 12.228C-5.316 38.099 0 32.782 0 25.871V0z" id="path3579" fill="#fff" transform="translate(4486.68 1449.658)"/></g><g id="g3581"><path d="M0 0c-.531 10.1-7.619 17.188-18.783 17.188-11.163 0-18.074-7.088-18.96-17.188-.355-4.785-.355-13.113 0-17.721.886-10.1 7.797-17.188 18.96-17.188C-7.619-34.909-.708-27.821 0-17.721.355-13.113.355-4.785 0 0m-18.783-57.591c-23.213 0-40.756 14.885-42.528 35.972-.531 7.088-.531 18.252 0 25.34 1.772 21.264 19.315 36.149 42.528 36.149 23.39 0 40.58-14.885 42.351-36.149.532-7.088.532-18.075 0-25.162-1.771-21.265-18.961-36.15-42.351-36.15" id="path3583" fill="#fff" transform="translate(4626.848 1416.7)"/></g><g id="g3585"><path d="M0 0c0 7.088 4.254 12.581 11.695 12.581 6.735 0 12.05-5.493 12.05-12.581v-45.186c0-10.632 6.911-16.48 17.011-16.48 7.797 0 13.644 2.304 17.366 4.607V.354c0 6.734 4.962 12.227 11.872 12.227 6.557 0 11.873-5.493 11.873-12.227v-66.272c0-4.076-1.063-6.38-4.253-8.329-5.493-3.899-18.428-10.101-37.389-10.101C14.708-84.348 0-70.525 0-45.54V0z" id="path3587" fill="#fff" transform="translate(4671.148 1443.456)"/></g><g id="g3589"><path d="M0 0c0-19.847-16.479-30.833-37.034-30.833-16.657 0-27.288 4.785-33.845 10.278-4.254 3.544-5.494 10.278-2.127 14.707C-69.462-1.063-63.438 0-57.59-3.721c5.494-3.544 12.759-5.847 21.088-5.847 9.214 0 13.467 3.366 13.467 8.151 0 3.898-2.836 6.556-10.278 8.328-6.378 1.418-6.203 1.24-13.113 3.013-14.53 3.721-25.871 11.872-25.871 27.111 0 19.138 15.416 29.593 36.149 29.593 11.164 0 22.681-2.835 28.883-7.975 5.14-4.252 4.785-11.517 1.064-15.77-3.544-3.899-9.569-4.43-15.416-1.418-4.608 2.304-10.81 3.898-15.417 3.898-8.861 0-12.581-3.366-12.581-7.619 0-3.722 2.658-6.202 10.632-7.974l12.581-2.835C-8.682 22.682 0 13.999 0 0" id="path3591" fill="#fff" transform="translate(4846.578 1389.941)"/></g><g id="g3593"><path d="M0 0c1.24 0 1.949.709 1.949 2.127.531 10.809-6.203 18.074-17.72 18.074-12.582 0-18.784-7.973-18.784-20.201H0zm24.808-4.253c0-6.91-3.544-11.872-12.227-11.872h-47.136v-1.771c0-11.165 8.506-17.189 20.379-17.189 6.379 0 12.936 1.595 18.96 3.898 9.392 3.544 15.593-2.835 15.593-9.391 0-3.367-1.24-7.089-6.023-9.924-6.557-3.898-17.899-6.202-29.239-6.202-24.454 0-40.933 15.417-42.705 37.566-.532 6.911-.355 16.658 0 22.151 2.126 23.036 18.606 37.744 41.819 37.744 24.099 0 40.579-16.125 40.579-41.111v-3.899z" id="path3595" fill="#fff" transform="translate(4920.12 1415.813)"/></g><g id="g3597"><path d="M0 0l1.756-7.682L3.566 0a3.088 3.088 0 0 0 3.018 2.47c1.592 0 2.854-.934 3.183-2.854l1.59-10.096c.221-1.208-.218-2.415-1.425-2.634-1.428-.275-2.36.549-2.525 1.756L6.311-2.854 4.334-10.81c-.384-1.371-1.207-2.304-2.578-2.304-1.262 0-2.141.823-2.579 2.304l-1.976 8.012-1.097-8.56c-.165-1.207-1.098-2.031-2.524-1.756-1.207.219-1.646 1.426-1.427 2.634L-6.256-.438c.33 1.974 1.647 2.908 3.183 2.908C-1.646 2.47-.33 1.536 0 0m-12.4-11.084c0-1.152-.879-2.03-2.032-2.03-1.207 0-2.084.933-2.084 2.03v9.438h-3.074c-1.042 0-1.92.878-1.92 1.92 0 1.153.878 1.976 1.92 1.976h10.152c1.042 0 1.92-.823 1.92-1.976 0-1.042-.878-1.92-1.92-1.92H-12.4v-9.438z" id="path3599" fill="#fff" transform="translate(4972.588 1453.128)"/></g><g id="g3601"><path d="M0 0c-21.973 0-31.896 15.063-31.896 34.909v69.994c0 6.91 5.139 12.405 11.873 12.405 6.556 0 11.873-5.495 11.873-12.405V92.854h22.149c5.848 0 10.987-4.431 10.987-10.632 0-5.848-5.139-10.279-10.987-10.279H-8.15V35.44c0-8.505 3.72-13.113 11.517-13.113 3.899 0 7.797 1.064 10.987 1.949 9.037 2.127 14.707-3.544 14.707-10.099 0-3.899-1.95-7.975-7.442-10.455C15.417.887 6.734 0 0 0" id="path3603" fill="#fff" transform="translate(4147.16 405.755)"/></g><g id="g3605"><path d="M0 0c0-4.783-3.722-11.163-11.164-11.163-4.076 0-7.975 1.772-13.29 1.595-5.848-.177-9.215-3.367-9.215-11.518v-50.147c0-6.735-5.139-12.05-11.872-12.05-6.557 0-11.873 5.315-11.873 12.05v54.577c0 18.428 10.81 30.301 31.187 30.301 5.848 0 11.696-.532 15.24-1.417C-3.722 10.278 0 5.848 0 0" id="path3607" fill="#fff" transform="translate(4250.29 489.57)"/></g><g id="g3609"><path d="M0 0c1.24 0 1.949.709 1.949 2.127.531 10.809-6.203 18.074-17.72 18.074-12.582 0-18.784-7.973-18.784-20.201H0zm24.808-4.253c0-6.91-3.544-11.872-12.227-11.872h-47.136v-1.771c0-11.165 8.506-17.189 20.379-17.189 6.379 0 12.936 1.595 18.96 3.898 9.392 3.544 15.593-2.835 15.593-9.391 0-3.367-1.24-7.089-6.023-9.924-6.557-3.898-17.899-6.202-29.239-6.202-24.454 0-40.933 15.417-42.706 37.566-.531 6.911-.353 16.658 0 22.151 2.127 23.036 18.607 37.743 41.82 37.743 24.099 0 40.579-16.125 40.579-41.11v-3.899z" id="path3611" fill="#fff" transform="translate(4317.629 462.459)"/></g><g id="g3613"><path d="M0 0c1.24 0 1.949.709 1.949 2.127.531 10.809-6.202 18.074-17.72 18.074-12.581 0-18.784-7.973-18.784-20.201H0zm24.809-4.253c0-6.91-3.545-11.872-12.227-11.872h-47.137v-1.771c0-11.165 8.506-17.189 20.379-17.189 6.379 0 12.936 1.595 18.961 3.898 9.391 3.544 15.593-2.835 15.593-9.391 0-3.367-1.24-7.089-6.024-9.924-6.557-3.898-17.898-6.202-29.239-6.202-24.453 0-40.933 15.417-42.705 37.566-.531 6.911-.354 16.658 0 22.151 2.127 23.036 18.606 37.743 41.819 37.743 24.099 0 40.58-16.125 40.58-41.11v-3.899z" id="path3615" fill="#fff" transform="translate(4417.748 462.459)"/></g><g id="g3617"><path d="M0 0c3.898 3.544 12.936 6.91 22.328 6.91 22.504 0 35.794-13.467 35.794-38.806v-45.541c0-7.087-4.962-12.581-12.05-12.581-6.556 0-11.695 5.494-11.695 12.581v44.3c0 10.81-6.201 16.834-15.947 16.834-7.444 0-14.708-3.366-18.43-7.442v-54.046c0-6.733-4.961-12.227-11.695-12.227-6.557 0-12.049 5.494-12.049 12.227V25.871c0 6.911 5.139 12.227 11.872 12.227C-5.316 38.098 0 32.782 0 25.871V0z" id="path3619" fill="#fff" transform="translate(4486.68 496.305)"/></g><g id="g3621"><path d="M0 0c-.531 10.1-7.619 17.187-18.783 17.187-11.163 0-18.074-7.087-18.96-17.187-.355-4.785-.355-13.113 0-17.721.886-10.1 7.797-17.188 18.96-17.188C-7.619-34.909-.708-27.821 0-17.721.355-13.113.355-4.785 0 0m-18.783-57.591c-23.213 0-40.756 14.885-42.528 35.972-.531 7.088-.531 18.252 0 25.34 1.772 21.263 19.315 36.148 42.528 36.148 23.39 0 40.58-14.885 42.351-36.148.532-7.088.532-18.075 0-25.162-1.771-21.265-18.961-36.15-42.351-36.15" id="path3623" fill="#fff" transform="translate(4626.848 463.346)"/></g><g id="g3625"><path d="M0 0c0 7.088 4.254 12.581 11.695 12.581 6.735 0 12.05-5.493 12.05-12.581v-45.186c0-10.632 6.911-16.48 17.011-16.48 7.797 0 13.644 2.304 17.366 4.607V.354c0 6.734 4.962 12.227 11.872 12.227 6.557 0 11.873-5.493 11.873-12.227v-66.272c0-4.076-1.063-6.38-4.253-8.329-5.493-3.899-18.428-10.101-37.389-10.101C14.708-84.348 0-70.525 0-45.54V0z" id="path3627" fill="#fff" transform="translate(4671.148 490.103)"/></g><g id="g3629"><path d="M0 0c0-19.847-16.479-30.833-37.034-30.833-16.657 0-27.288 4.785-33.845 10.278-4.254 3.544-5.494 10.278-2.127 14.707C-69.462-1.063-63.438 0-57.59-3.721c5.494-3.544 12.759-5.847 21.088-5.847 9.214 0 13.467 3.366 13.467 8.151 0 3.898-2.836 6.556-10.278 8.328-6.378 1.418-6.203 1.24-13.113 3.013-14.53 3.721-25.871 11.872-25.871 27.111 0 19.138 15.416 29.592 36.149 29.592 11.164 0 22.681-2.834 28.883-7.974 5.14-4.253 4.785-11.517 1.064-15.77-3.544-3.899-9.569-4.43-15.416-1.418-4.608 2.304-10.81 3.898-15.417 3.898-8.861 0-12.581-3.366-12.581-7.619 0-3.722 2.658-6.202 10.632-7.974l12.581-2.835C-8.682 22.682 0 13.999 0 0" id="path3631" fill="#fff" transform="translate(4846.578 436.588)"/></g><g id="g3633"><path d="M0 0c1.24 0 1.949.709 1.949 2.127.531 10.809-6.203 18.074-17.72 18.074-12.582 0-18.784-7.973-18.784-20.201H0zm24.808-4.253c0-6.91-3.544-11.872-12.227-11.872h-47.136v-1.771c0-11.165 8.506-17.189 20.379-17.189 6.379 0 12.936 1.595 18.96 3.898 9.392 3.544 15.593-2.835 15.593-9.391 0-3.367-1.24-7.089-6.023-9.924-6.557-3.898-17.899-6.202-29.239-6.202-24.454 0-40.933 15.417-42.705 37.566-.532 6.911-.355 16.658 0 22.151 2.126 23.036 18.606 37.743 41.819 37.743 24.099 0 40.579-16.125 40.579-41.11v-3.899z" id="path3635" fill="#fff" transform="translate(4920.12 462.459)"/></g><g id="g3637"><path d="M0 0l1.756-7.682L3.566 0a3.088 3.088 0 0 0 3.018 2.47c1.592 0 2.854-.934 3.183-2.854l1.59-10.096c.221-1.208-.218-2.415-1.425-2.634-1.428-.275-2.36.549-2.525 1.756L6.311-2.854 4.334-10.81c-.384-1.371-1.207-2.304-2.578-2.304-1.262 0-2.141.823-2.579 2.304l-1.976 8.012-1.097-8.56c-.165-1.207-1.098-2.031-2.524-1.756-1.207.219-1.646 1.426-1.427 2.634L-6.256-.438c.33 1.974 1.647 2.908 3.183 2.908C-1.646 2.47-.33 1.536 0 0m-12.4-11.084c0-1.152-.879-2.03-2.032-2.03-1.207 0-2.084.933-2.084 2.03v9.438h-3.074c-1.042 0-1.92.877-1.92 1.92 0 1.153.878 1.975 1.92 1.975h10.152c1.042 0 1.92-.822 1.92-1.975 0-1.043-.878-1.92-1.92-1.92H-12.4v-9.438z" id="path3639" fill="#fff" transform="translate(4972.588 499.774)"/></g><path d="M601.757 1444.999c-14.695 8.308-38.162-5.054-52.415-29.845l-25.805-44.89c-9.428-18.661-8.135-40.88 3.823-58.034l.752-1.082c11.958-17.152 27.993-33.007 33.298-38.664a29.175 29.175 0 0 0 6.818-12.124c4.357-15.584-4.74-31.751-20.325-36.112-15.584-4.36-31.752 4.738-36.112 20.324a29.162 29.162 0 0 0-.847 11.649c.838 6.439-1.228 16.926-10.46 27.222-9.233 10.296-28.102-9.15-34.204-29.15l-.282-.917c-6.1-19.998-9.952-37.45-8.8-39.13a32.856 32.856 0 0 0 1.907-3.147c8.56-16.108 2.443-36.106-13.664-44.667-16.109-8.562-36.106-2.445-44.668 13.662-8.56 16.108-2.444 36.105 13.664 44.667.722.384 1.454.739 2.191 1.064 1.231.54 4.72 8.948 7.748 18.878l5.486 17.98a57.62 57.62 0 0 1 .862 3.138l16.3 58.202-17.435-35.785c-2.066 6.794-5.482 7.036-12.964 1.684-4.513-3.23-11.973-9.586-15.618-12.194-6.844-4.897-12.569-14.408-15.6-20.235a28.944 28.944 0 0 0-7.473-9.146c-12.483-10.128-30.81-8.22-40.937 4.262-10.127 12.48-8.218 30.808 4.262 40.935a28.989 28.989 0 0 0 12.131 5.84c7.333 1.594 32.271 16.828 47.296 27.579 2.69 1.924 4.947 3.744 6.783 5.432l40.118 30.468-34.939-18.88s-3.555.36-7.913-.123c-12.789-1.42-25.957-3.221-28.446-6.388a25.913 25.913 0 0 0-5.253-5.028c-11.66-8.4-27.924-5.756-36.324 5.907-8.402 11.663-5.755 27.927 5.905 36.326a25.896 25.896 0 0 0 15.902 4.896c9.352-.26 33.961-5.25 54.548-1.6l5.288.936c20.59 3.649 45.238 21.57 55.06 40.03l21.478 37.732c11.864 20.839 10.987 43.664-1.954 50.98l-23.437 13.25c-11.823 6.685-31.18 6.697-43.013.026l-161.416-91c-11.832-6.67-21.513-23.242-21.513-36.825v-177.827c0-13.584 9.681-30.156 21.513-36.828l161.416-90.997c11.833-6.673 31.19-6.66 43.013.026l160.863 90.947c11.828 6.684 21.502 23.268 21.502 36.852v177.827c0 13.583-9.674 30.168-21.502 36.852 0 0-11.914 6.735-26.608 15.045" id="path3555" fill="#fff"/><path id="path4202" d="M601.757 1444.999c-14.695 8.308-38.162-5.054-52.415-29.845l-25.805-44.89c-9.428-18.661-8.135-40.88 3.823-58.034l.752-1.082c11.958-17.152 27.993-33.007 33.298-38.664a29.175 29.175 0 0 0 6.818-12.124c4.357-15.584-4.74-31.751-20.325-36.112-15.584-4.36-31.752 4.738-36.112 20.324a29.162 29.162 0 0 0-.847 11.649c.838 6.439-1.228 16.926-10.46 27.222-9.233 10.296-28.102-9.15-34.204-29.15l-.282-.917c-6.1-19.998-9.952-37.45-8.8-39.13a32.856 32.856 0 0 0 1.907-3.147c8.56-16.108 2.443-36.106-13.664-44.667-16.109-8.562-36.106-2.445-44.668 13.662-8.56 16.108-2.444 36.105 13.664 44.667.722.384 1.454.739 2.191 1.064 1.231.54 4.72 8.948 7.748 18.878l5.486 17.98a57.62 57.62 0 0 1 .862 3.138l16.3 58.202-17.435-35.785c-2.066 6.794-5.482 7.036-12.964 1.684-4.513-3.23-11.973-9.586-15.618-12.194-6.844-4.897-12.569-14.408-15.6-20.235a28.944 28.944 0 0 0-7.473-9.146c-12.483-10.128-30.81-8.22-40.937 4.262-10.127 12.48-8.218 30.808 4.262 40.935a28.989 28.989 0 0 0 12.131 5.84c7.333 1.594 32.271 16.828 47.296 27.579 2.69 1.924 4.947 3.744 6.783 5.432l40.118 30.468-34.939-18.88s-3.555.36-7.913-.123c-12.789-1.42-25.957-3.221-28.446-6.388a25.913 25.913 0 0 0-5.253-5.028c-11.66-8.4-27.924-5.756-36.324 5.907-8.402 11.663-5.755 27.927 5.905 36.326a25.896 25.896 0 0 0 15.902 4.896c9.352-.26 33.961-5.25 54.548-1.6l5.288.936c20.59 3.649 45.238 21.57 55.06 40.03l21.478 37.732c11.864 20.839 10.987 43.664-1.954 50.98l-23.437 13.25c-11.823 6.685-31.18 6.697-43.013.026l-161.416-91c-11.832-6.67-21.513-23.242-21.513-36.825v-177.827c0-13.584 9.681-30.156 21.513-36.828l161.416-90.997c11.833-6.673 31.19-6.66 43.013.026l160.863 90.947c11.828 6.684 21.502 23.268 21.502 36.852v177.827c0 13.583-9.674 30.168-21.502 36.852 0 0-11.914 6.735-26.608 15.045" fill="#6fbc6d"/><path d="M2541.055 1311.859c-14.695 8.308-38.162-5.054-52.415-29.845l-25.805-44.89c-9.428-18.661-8.135-40.88 3.823-58.034l.752-1.082c11.958-17.153 27.993-33.008 33.298-38.665a29.175 29.175 0 0 0 6.818-12.124c4.357-15.584-4.741-31.75-20.325-36.112-15.584-4.359-31.752 4.738-36.112 20.324a29.162 29.162 0 0 0-.847 11.65c.838 6.438-1.228 16.925-10.46 27.221-9.233 10.296-28.102-9.15-34.204-29.149l-.282-.918c-6.101-19.997-9.952-37.45-8.801-39.13a32.856 32.856 0 0 0 1.908-3.147c8.56-16.108 2.443-36.106-13.664-44.667-16.11-8.561-36.106-2.444-44.668 13.663-8.561 16.108-2.444 36.105 13.664 44.667.722.383 1.454.738 2.19 1.063 1.232.542 4.72 8.949 7.749 18.879l5.486 17.98a57.62 57.62 0 0 1 .862 3.138l16.3 58.201-17.435-35.785c-2.066 6.794-5.482 7.036-12.964 1.684-4.513-3.23-11.973-9.586-15.618-12.194-6.844-4.897-12.57-14.408-15.6-20.235a28.944 28.944 0 0 0-7.473-9.146c-12.483-10.127-30.81-8.218-40.937 4.263-10.127 12.48-8.218 30.807 4.262 40.934a28.989 28.989 0 0 0 12.13 5.841c7.334 1.593 32.272 16.827 47.297 27.578 2.69 1.924 4.947 3.744 6.783 5.432l40.118 30.468-34.94-18.879s-3.554.36-7.912-.124c-12.79-1.42-25.957-3.22-28.446-6.388a25.913 25.913 0 0 0-5.253-5.027c-11.66-8.4-27.924-5.757-36.324 5.906-8.402 11.663-5.755 27.927 5.905 36.326a25.896 25.896 0 0 0 15.902 4.896c9.352-.259 33.96-5.249 54.548-1.6l5.288.936c20.589 3.65 45.238 21.57 55.059 40.03l21.479 37.732c11.864 20.84 10.987 43.664-1.954 50.98l-23.437 13.25c-11.823 6.685-31.18 6.697-43.013.026l-161.416-90.999c-11.832-6.67-21.513-23.243-21.513-36.826v-177.827c0-13.584 9.68-30.156 21.513-36.828l161.416-90.996c11.833-6.673 31.19-6.66 43.013.026l160.863 90.946c11.828 6.684 21.502 23.268 21.502 36.852v177.827c0 13.583-9.674 30.168-21.502 36.852 0 0-11.914 6.735-26.608 15.045" id="path3555-3" fill="#fff"/></g></g></g></g></svg>